<mxfile host="app.diagrams.net" modified="2023-12-19T06:47:10.018Z" agent="Mozilla/5.0 (X11; Linux x86_64; rv:120.0) Gecko/20100101 Firefox/120.0" version="21.5.2" etag="Qz3u3ULuqEbcUyEricni" type="github">
  <diagram name="Page-1" id="QsHYjgboYlYCACKAO8Zc">
    <mxGraphModel>
      <root>
        <mxCell id="0" />
        <mxCell id="1" parent="0" />
      </root>
    </mxGraphModel>
  </diagram>
</mxfile>
